# xmcd
#
# Track frame offsets: 
#        150
#        18857
#        38856
#        68919
#        94055
#        108479
#        131127
#        146251
#        168136
#        194383
#        223194
#        245007
#        257049
#        273810
#        299171
#        331043
#
# Disc length: 4779 seconds
#
# Revision: 15
# Processed by: cddbd v1.5.2PL0 Copyright (c) Steve Scherf et al.
# Submitted via: ExactAudioCopyFreeDBPlugin 1.0
#
DISCID=f012a910
DTITLE=Lionel Richie and Commodores - 2006 - Gold [CD 2]
DYEAR=2006
DGENRE=Soul
TTITLE0=Hello
TTITLE1=Endless Love (Duet with Diana Ross)
TTITLE2=Three Times A Lady
TTITLE3=Sail On
TTITLE4=Stuck On You
TTITLE5=You Are
TTITLE6=Truly
TTITLE7=Easy (Commodores)
TTITLE8=Still (Commodores)
TTITLE9=Just To Be Close To You (Commodores)
TTITLE10=Lady (You Bring Me Up) (Commodores)
TTITLE11=Machine Gun (Commodores)
TTITLE12=Brick House (Commodores)
TTITLE13=Too Hot Ta Trot (Commodores)
TTITLE14=Zoom (Commodores)
TTITLE15=Jesus Is Love (Commodores)
EXTD=YEAR: 2006
EXTT0=
EXTT1=
EXTT2=
EXTT3=
EXTT4=
EXTT5=
EXTT6=
EXTT7=
EXTT8=
EXTT9=
EXTT10=
EXTT11=
EXTT12=
EXTT13=
EXTT14=
EXTT15=
PLAYORDER=
